<svg width="42" height="42" viewBox="0 0 42 42" fill="none" xmlns="http://www.w3.org/2000/svg">
<path d="M21 11C21 11 30.3916 10.9996 32.7394 11.6103C34.022 11.9416 35.044 12.9045 35.381 14.126C36.0223 16.362 35.9999 21.0209 35.9999 21.0209C35.9999 21.0786 35.9965 25.6718 35.381 27.8937C35.0332 29.1152 34.022 30.0781 32.7394 30.4094C30.3916 30.9995 21 31 21 31C20.9791 31 11.6275 30.9986 9.26049 30.3885C7.97795 30.0572 6.96671 29.0943 6.61889 27.8728C6.00244 25.6681 6.00001 21.0446 6 21C6 21 5.99932 16.362 6.61889 14.126C6.96673 12.9045 7.9996 11.9206 9.26049 11.5894C11.6057 11 20.9791 11 21 11ZM18.0519 25.2804L25.8571 20.9953L18.0519 16.7091V25.2804Z" fill="white" fill-opacity="0.6"/>
</svg>