<svg width="42" height="42" viewBox="0 0 42 42" fill="none" xmlns="http://www.w3.org/2000/svg">
<path d="M31.3963 11.8237C29.4842 10.9796 27.4339 10.3577 25.29 10.0015C25.2509 9.99462 25.2119 10.0118 25.1917 10.0461C24.9281 10.4974 24.636 11.0861 24.4314 11.5488C22.1256 11.2166 19.8315 11.2166 17.5729 11.5488C17.3684 11.0758 17.0656 10.4974 16.8007 10.0461C16.7807 10.0129 16.7416 9.99574 16.7026 10.0015C14.5599 10.3565 12.5095 10.9784 10.5962 11.8237C10.5796 11.8306 10.5654 11.842 10.556 11.8569C6.66678 17.4471 5.60131 22.8999 6.12397 28.2852C6.12631 28.3115 6.14172 28.3368 6.16299 28.3528C8.72898 30.1658 11.2147 31.2664 13.6541 31.996C13.6931 32.0075 13.7345 31.9938 13.7593 31.9628C14.3364 31.2046 14.8508 30.4052 15.2918 29.5645C15.3178 29.5153 15.293 29.4568 15.2398 29.4374C14.4238 29.1396 13.6469 28.7765 12.8996 28.3643C12.8405 28.331 12.8357 28.2497 12.8901 28.2107C13.0474 28.0974 13.2047 27.9794 13.3549 27.8603C13.3821 27.8386 13.4199 27.8339 13.4519 27.8476C18.3616 30.0044 23.6769 30.0044 28.5286 27.8476C28.5606 27.8328 28.5985 27.8374 28.6267 27.8591C28.777 27.9783 28.9342 28.0973 29.0927 28.2107C29.1471 28.2496 29.1435 28.331 29.0845 28.3643C28.3371 28.7846 27.5602 29.1396 26.7431 29.4363C26.6899 29.4557 26.6662 29.5152 26.6924 29.5645C27.1429 30.404 27.6572 31.2034 28.2236 31.9616C28.2472 31.9936 28.2899 32.0075 28.3288 31.996C30.7801 31.2664 33.2657 30.1657 35.8317 28.3528C35.8542 28.3368 35.8685 28.3127 35.8708 28.2863C36.4963 22.0604 34.8231 16.6523 31.4352 11.858C31.4271 11.842 31.4128 11.8306 31.3963 11.8237ZM16.0251 25.0061C14.5469 25.0061 13.329 23.7005 13.329 22.0971C13.329 20.4936 14.5233 19.188 16.0251 19.188C17.5386 19.188 18.7449 20.5051 18.7211 22.0971C18.7211 23.7005 17.5268 25.0061 16.0251 25.0061ZM25.9935 25.0061C24.5154 25.0061 23.2974 23.7005 23.2974 22.0971C23.2974 20.4936 24.4917 19.188 25.9935 19.188C27.5071 19.188 28.7132 20.5051 28.6896 22.0971C28.6896 23.7005 27.5071 25.0061 25.9935 25.0061Z" fill="white" fill-opacity="0.6"/>
</svg>