<svg width="205" height="43" viewBox="0 0 205 43" fill="none" xmlns="http://www.w3.org/2000/svg">
<g clip-path="url(#clip0_175_448)">
<mask id="mask0_175_448" style="mask-type:luminance" maskUnits="userSpaceOnUse" x="0" y="0" width="205" height="43">
<path d="M205 0H0V43H205V0Z" fill="white"/>
</mask>
<g mask="url(#mask0_175_448)">
<path fill-rule="evenodd" clip-rule="evenodd" d="M35.5947 28.2468L44.2752 43H32.0353C30.8542 43 29.7778 42.343 29.2653 41.3101L24.3169 31.3353L17.7324 18.9432H29.8018C30.5776 18.9432 30.929 18.7868 31.697 18.0796C32.2636 17.5577 32.4515 15.7907 32.4515 14.6591C32.4515 13.5275 31.4587 12.3646 30.8762 11.8816C30.2935 11.3986 28.7683 11.1639 27.9925 11.1639H14.3385L12.2138 6.53439C11.9188 5.89154 11.3994 5.37058 10.7474 5.0634L0 0H24.6502C30.0597 0 34.4104 1.47931 37.7022 4.43792C41.0149 7.37656 42.6711 11.1248 42.6711 15.6826C42.6711 17.3619 42.4196 18.9412 41.9163 20.4204C41.4342 21.8799 40.8473 23.0692 40.1551 23.9889C39.4633 24.9084 38.7715 25.7081 38.0794 26.3878C37.4085 27.0674 36.8321 27.5471 36.3497 27.827L35.5947 28.2468ZM20.1251 43L15.0639 32.6379C14.6567 31.8041 13.7915 31.2727 12.8415 31.2727H7.76943C5.99987 31.2727 4.80927 33.033 5.51198 34.6102L8.60814 41.5598C8.99764 42.4341 9.88474 43 10.8656 43H20.1251Z" fill="white"/>
<path d="M32.1984 13.6166C31.8733 12.544 31.3997 6.58765 26.1346 2.98611C23.0167 0.853291 18.877 -7.98071e-08 15.4894 0C6.38153 2.14573e-07 0 0 0 0L6.918 3.28472C7.85687 3.72705 10.9527 5.56933 12.2987 7.46528C13.6446 9.36122 14.2972 11.1639 14.2972 11.1639H27.9925C28.7683 11.1639 30.2935 11.3986 30.8762 11.8816C31.2522 12.1935 31.8577 12.9293 32.1984 13.6166Z" fill="url(#paint0_linear_175_448)"/>
<path d="M32.1984 13.6166C31.8733 12.544 31.3997 6.58765 26.1346 2.98611C23.0167 0.853291 18.877 -7.98071e-08 15.4894 0C6.38153 2.14573e-07 0 0 0 0L6.918 3.28472C7.85687 3.72705 10.9527 5.56933 12.2987 7.46528C13.6446 9.36122 14.2972 11.1639 14.2972 11.1639H27.9925C28.7683 11.1639 30.2935 11.3986 30.8762 11.8816C31.2522 12.1935 31.8577 12.9293 32.1984 13.6166Z" fill="white"/>
<path d="M57.7852 34.5686L63.0951 10.1055H74.7106C77.1442 10.1055 79.1703 10.8561 80.7889 12.3573C82.4191 13.8471 83.2343 15.6042 83.2343 17.6286C83.2343 18.8683 83.0363 20.0055 82.6403 21.0405C82.2445 22.0754 81.7729 22.8885 81.2256 23.4799C80.6782 24.0713 80.1251 24.5717 79.5663 24.9812C79.0073 25.3906 78.5241 25.6635 78.1164 25.8001L77.5401 26.0047L80.5094 34.5686H72.3525L70.0643 27.5742H67.3394L65.8373 34.5686H57.7852ZM72.7542 20.5969C73.3714 20.5969 73.9012 20.415 74.3437 20.0511C74.7862 19.6871 75.0075 19.1697 75.0075 18.4987C75.0075 18.1006 74.8502 17.7707 74.5359 17.5092C74.2214 17.2362 73.8021 17.0998 73.2781 17.0998H69.6277L68.8765 20.5969H72.7542Z" fill="white"/>
<path d="M91.9341 28.1031H104.091L102.711 34.5686H82.4845L87.7945 10.1055H107.637L106.239 16.5709H94.4318L93.8729 19.1981H102.816L101.523 25.1348H92.5803L91.9341 28.1031Z" fill="white"/>
<path d="M118.782 35.2682C115.277 35.2682 112.319 34.1537 109.909 31.9245C107.51 29.6841 106.311 27.0626 106.311 24.0602C106.311 19.966 107.888 16.5029 111.044 13.671C114.2 10.8279 118.071 9.40625 122.659 9.40625C124.022 9.40625 125.32 9.57684 126.555 9.91803C127.789 10.2592 128.808 10.6686 129.611 11.1463C130.415 11.624 131.113 12.1016 131.707 12.5793C132.301 13.057 132.726 13.4664 132.982 13.8076L133.384 14.3023L127.62 19.0959C127.55 19.0278 127.463 18.931 127.358 18.8059C127.253 18.6695 127.003 18.4533 126.607 18.1577C126.211 17.8506 125.803 17.5834 125.384 17.3559C124.965 17.1171 124.429 16.901 123.777 16.7077C123.125 16.5029 122.461 16.4006 121.786 16.4006C119.783 16.4006 118.066 17.0886 116.633 18.4647C115.213 19.8409 114.502 21.4956 114.502 23.429C114.502 24.7824 115.021 25.931 116.057 26.875C117.093 27.8076 118.339 28.2738 119.795 28.2738C120.435 28.2738 121.029 28.1885 121.576 28.018C122.124 27.8473 122.508 27.6768 122.729 27.5062L123.044 27.2332L123.515 25.135H119.935L120.86 20.7678H132.493L130.415 30.3721C130.298 30.5086 130.124 30.6906 129.891 30.9181C129.669 31.1342 129.18 31.5265 128.423 32.0952C127.678 32.6525 126.886 33.1471 126.048 33.5794C125.221 34.0115 124.144 34.3981 122.817 34.7393C121.489 35.0919 120.144 35.2682 118.782 35.2682Z" fill="white"/>
<path d="M132.896 34.5686L138.206 10.1055H146.24L140.948 34.5686H132.896Z" fill="white"/>
<path d="M160.879 16.4006C159.109 16.4006 157.514 17.0659 156.093 18.3965C154.684 19.7272 153.979 21.2853 153.979 23.0707C153.979 24.5607 154.504 25.8059 155.552 26.8067C156.6 27.8076 157.934 28.308 159.552 28.308C161.344 28.308 162.94 27.6483 164.338 26.3292C165.747 24.9985 166.452 23.4347 166.452 21.6377C166.452 20.1706 165.928 18.931 164.879 17.9189C163.831 16.9067 162.498 16.4006 160.879 16.4006ZM174.644 21.1602C174.644 23.6053 173.922 25.9254 172.476 28.1204C171.044 30.304 169.124 32.044 166.713 33.3405C164.303 34.6256 161.746 35.2682 159.045 35.2682C155.11 35.2682 151.913 34.1308 149.456 31.8563C147.012 29.5704 145.789 26.8067 145.789 23.5655C145.789 21.0748 146.499 18.7434 147.919 16.5711C149.351 14.3875 151.273 12.6475 153.683 11.351C156.093 10.0545 158.673 9.40625 161.421 9.40625C165.356 9.40625 168.542 10.5549 170.975 12.8522C173.421 15.1496 174.644 17.9189 174.644 21.1602Z" fill="white"/>
<path d="M195.796 10.1055H203.849L198.557 34.5686H192.006L184.862 22.6952L182.279 34.5686H174.226L179.534 10.1055H186.102L193.229 21.9958L195.796 10.1055Z" fill="white"/>
</g>
</g>
<defs>
<linearGradient id="paint0_linear_175_448" x1="0" y1="6.80834" x2="32.1984" y2="6.80834" gradientUnits="userSpaceOnUse">
<stop stop-color="#E63F3F"/>
<stop offset="1" stop-color="#AB2929"/>
</linearGradient>
<clipPath id="clip0_175_448">
<rect width="205" height="43" fill="white"/>
</clipPath>
</defs>
</svg>
