<svg width="22" height="20" viewBox="0 0 22 20" fill="none" xmlns="http://www.w3.org/2000/svg">
<g clip-path="url(#clip0_249_416)">
<path fill-rule="evenodd" clip-rule="evenodd" d="M17.3488 13.1381L21.5796 20H15.614C15.0383 20 14.5136 19.6944 14.2639 19.214L11.852 14.5746L8.64273 8.81081H14.5253C14.9035 8.81081 15.0747 8.73806 15.4491 8.40913C15.7253 8.16638 15.8168 7.3445 15.8168 6.81819C15.8168 6.29187 15.3329 5.75097 15.049 5.52632C14.765 5.30167 14.0216 5.19251 13.6435 5.19251H6.98855L5.95298 3.03925C5.80918 2.74025 5.55606 2.49794 5.23827 2.35507L0 0H12.0145C14.651 0 16.7716 0.68805 18.376 2.06415C19.9906 3.43096 20.7978 5.17433 20.7978 7.29425C20.7978 8.07531 20.6752 8.80987 20.43 9.49788C20.195 10.1767 19.9089 10.7299 19.5715 11.1576C19.2344 11.5853 18.8972 11.9572 18.5598 12.2734C18.2328 12.5895 17.9519 12.8126 17.7168 12.9428L17.3488 13.1381ZM9.80894 20L7.34211 15.1804C7.14365 14.7926 6.72198 14.5454 6.25894 14.5454H3.78681C2.92433 14.5454 2.34403 15.3642 2.68653 16.0977L4.19559 19.3301C4.38543 19.7368 4.81781 20 5.29588 20H9.80894Z" fill="white"/>
<path d="M15.6934 6.33331C15.535 5.83442 15.3042 3.06402 12.7379 1.38889C11.2183 0.396879 9.20063 -3.71196e-08 7.54952 0C3.11035 9.98012e-08 0 0 0 0L3.37182 1.52777C3.82943 1.73351 5.33833 2.59039 5.99435 3.47222C6.65034 4.35406 6.96844 5.19251 6.96844 5.19251H13.6435C14.0216 5.19251 14.765 5.30167 15.049 5.52632C15.2323 5.67137 15.5274 6.01364 15.6934 6.33331Z" fill="#FF2830"/>
</g>
<defs>
<clipPath id="clip0_249_416">
<rect width="22" height="20" fill="white"/>
</clipPath>
</defs>
</svg>
