<svg width="109" height="22" viewBox="0 0 109 22" fill="none" xmlns="http://www.w3.org/2000/svg">
<g clip-path="url(#clip0_10_8)">
<path fill-rule="evenodd" clip-rule="evenodd" d="M18.926 14.4519L23.5414 22H17.0334C16.4054 22 15.8331 21.6639 15.5606 21.1354L12.9295 16.032L9.42843 9.69189H15.8458C16.2583 9.69189 16.4452 9.61187 16.8535 9.25004C17.1548 8.98301 17.2547 8.07895 17.2547 7.50001C17.2547 6.92106 16.7268 6.32607 16.4171 6.07895C16.1073 5.83184 15.2963 5.71176 14.8838 5.71176H7.62387L6.49416 3.34318C6.33729 3.01428 6.06116 2.74774 5.71448 2.59058L0 0H13.1067C15.983 0 18.2963 0.756855 20.0465 2.27057C21.8079 3.77405 22.6885 5.69176 22.6885 8.02367C22.6885 8.88284 22.5548 9.69086 22.2872 10.4477C22.0309 11.1944 21.7188 11.8029 21.3507 12.2734C20.9829 12.7438 20.6151 13.153 20.2471 13.5007C19.8904 13.8484 19.5839 14.0939 19.3274 14.2371L18.926 14.4519ZM10.7007 22L8.00958 16.6985C7.79307 16.2719 7.33306 16 6.82794 16H4.13106C3.19017 16 2.55713 16.9006 2.93076 17.7075L4.57701 21.2631C4.78411 21.7105 5.25579 22 5.77733 22H10.7007Z" fill="white"/>
<path d="M17.1201 6.96664C16.9473 6.41786 16.6955 3.37043 13.8959 1.52778C12.2381 0.436567 10.037 -4.08315e-08 8.23584 0C3.39311 1.09781e-07 0 0 0 0L3.67835 1.68055C4.17756 1.90686 5.82363 2.84943 6.53929 3.81945C7.25491 4.78946 7.60193 5.71176 7.60193 5.71176H14.8838C15.2963 5.71176 16.1073 5.83184 16.4171 6.07895C16.617 6.23851 16.939 6.615 17.1201 6.96664Z" fill="#FF2830"/>
<path d="M65.2188 4.8125C65.9431 4.8125 66.6337 4.89966 67.29 5.07422C67.9463 5.24878 68.4878 5.45874 68.915 5.70312C69.342 5.9474 69.7136 6.19127 70.0293 6.43555C70.345 6.67993 70.5719 6.8899 70.708 7.06445L70.9209 7.31738L67.8564 9.76953C67.8193 9.7347 67.7724 9.68589 67.7168 9.62207C67.6611 9.55229 67.5278 9.44129 67.3174 9.29004C67.107 9.13309 66.8907 8.9962 66.668 8.87988C66.4451 8.75773 66.1602 8.64677 65.8135 8.54785C65.4669 8.44311 65.1138 8.39066 64.7549 8.39062C63.6899 8.39062 62.7762 8.7432 62.0146 9.44727C61.2595 10.1513 60.8818 10.9982 60.8818 11.9873C60.8819 12.6795 61.1572 13.2672 61.708 13.75C62.2591 14.2271 62.9223 14.4658 63.6963 14.4658C64.0365 14.4658 64.3519 14.4221 64.6426 14.335C64.9334 14.2477 65.1382 14.1605 65.2559 14.0732L65.4229 13.9336L65.6738 12.8594H63.7705L64.2627 10.625H70.4473L69.3428 15.5391C69.2809 15.6089 69.1873 15.702 69.0635 15.8184C68.9457 15.9289 68.6855 16.13 68.2832 16.4209C67.8871 16.7059 67.4661 16.9586 67.0205 17.1797C66.581 17.4008 66.0084 17.5989 65.3027 17.7734C64.5969 17.9538 63.8816 18.0439 63.1572 18.0439C61.2935 18.0439 59.7211 17.4735 58.4395 16.333C57.1642 15.1868 56.5264 13.8456 56.5264 12.3096C56.5265 10.215 57.3652 8.4429 59.043 6.99414C60.7209 5.53965 62.7795 4.81253 65.2188 4.8125ZM85.8281 4.8125C87.9205 4.8125 89.6154 5.39983 90.9092 6.5752C92.2093 7.75058 92.8594 9.16785 92.8594 10.8262C92.8594 12.077 92.4755 13.2638 91.707 14.3867C90.9455 15.5039 89.9242 16.3943 88.6426 17.0576C87.3609 17.7151 86.0017 18.0439 84.5654 18.0439C82.4732 18.0439 80.7733 17.4624 79.4668 16.2988C78.1673 15.1293 77.5166 13.715 77.5166 12.0566C77.5166 10.7825 77.8944 9.58982 78.6494 8.47852C79.411 7.36133 80.4332 6.47094 81.7148 5.80762C82.9963 5.14446 84.3673 4.81257 85.8281 4.8125ZM39.7246 5.16992C41.0183 5.17001 42.0956 5.55434 42.9561 6.32227C43.8229 7.0845 44.2559 7.98381 44.2559 9.01953C44.2558 9.65364 44.1509 10.2353 43.9404 10.7646C43.7301 11.294 43.4794 11.7102 43.1885 12.0127C42.8975 12.3153 42.6028 12.5718 42.3057 12.7812C42.0086 12.9906 41.7519 13.1304 41.5352 13.2002L41.2285 13.3047L42.8076 17.6865H38.4707L37.2539 14.1074H35.8047L35.0059 17.6865H30.7246L33.5479 5.16992H39.7246ZM56.4883 8.47852H50.21L49.9131 9.82227H54.668L53.9805 12.8594H49.2256L48.8818 14.3789H55.3457L54.6123 17.6865H43.8574L46.6807 5.16992H57.2314L56.4883 8.47852ZM74.9424 17.6865H70.6621L73.4854 5.16992H77.7568L74.9424 17.6865ZM102.741 11.2539L104.106 5.16992H108.388L105.574 17.6865H102.091L98.292 11.6113L96.9189 17.6865H92.6367L95.46 5.16992H98.9521L102.741 11.2539ZM85.541 8.39062C84.5999 8.39062 83.7512 8.73138 82.9961 9.41211C82.2466 10.0929 81.8721 10.8902 81.8721 11.8037C81.8721 12.5659 82.1511 13.2028 82.708 13.7148C83.2651 14.2269 83.9751 14.4834 84.835 14.4834C85.7881 14.4834 86.6369 14.1456 87.3799 13.4707C88.1292 12.7899 88.5039 11.9896 88.5039 11.0703C88.5039 10.3198 88.2248 9.68576 87.667 9.16797C87.1099 8.65019 86.4015 8.39067 85.541 8.39062ZM36.6221 10.5381H38.6836C39.0117 10.5381 39.294 10.445 39.5293 10.2588C39.7644 10.0726 39.8818 9.80797 39.8818 9.46484C39.8818 9.26121 39.798 9.0918 39.6309 8.95801C39.4638 8.81859 39.2411 8.74909 38.9629 8.74902H37.0215L36.6221 10.5381Z" fill="white"/>
</g>
<defs>
<clipPath id="clip0_10_8">
<rect width="109" height="22" fill="white"/>
</clipPath>
</defs>
</svg>
