<svg width="58" height="58" viewBox="0 0 58 58" fill="none" xmlns="http://www.w3.org/2000/svg">
<g>
<rect x="0.5" y="0.5" width="57" height="57" rx="19.5" fill="url(#paint0_radial_165_432)"/>
<rect x="0.5" y="0.5" width="57" height="57" rx="19.5" stroke="url(#paint1_linear_165_432)" style="mix-blend-mode:plus-lighter"/>
<path fill-rule="evenodd" clip-rule="evenodd" d="M17.0479 32.2921C20.9416 32.2922 24.0957 35.4462 24.0957 39.34C24.0956 40.6612 23.725 41.9119 23.0732 42.9689C21.8576 45.0126 19.6201 46.3868 17.0479 46.3868C14.4755 46.3868 12.2372 45.0127 11.0215 42.9689C10.3698 41.9119 10.0001 40.6611 10 39.34C10 35.4462 13.154 32.2921 17.0479 32.2921ZM38.3662 18.1964C38.8242 18.1964 39.2648 18.2139 39.6875 18.2843C43.2465 18.6895 45.819 20.857 46.7705 24.0812C46.9467 24.6626 46.5239 25.2443 45.9248 25.2443H41.8906C38.0673 25.2443 35.0362 28.7331 35.8643 32.6974C36.4458 35.5867 39.1241 37.5773 42.0664 37.5773H45.9248C46.5415 37.5773 46.9467 38.1765 46.7705 38.7404C45.6957 42.3698 42.5948 44.6251 38.3662 44.6251H26.9141C26.227 44.6251 25.7867 43.8677 26.0684 43.2335C26.5969 42.0002 26.9316 40.6076 26.9316 39.339C26.9314 34.0006 22.5796 29.6486 17.2412 29.6486C15.9022 29.6486 14.5984 29.9306 13.4004 30.4591C12.7485 30.741 11.9551 30.3006 11.9551 29.5958V27.006C11.9551 22.2136 14.8451 18.8657 19.3379 18.3019C19.7782 18.2314 20.2539 18.1964 20.7471 18.1964H38.3662ZM20.5889 36.8907C20.0955 36.3622 19.2503 36.3271 18.7217 36.8204L15.9023 39.4279L15.0566 38.5821C14.5457 38.0712 13.7004 38.0713 13.1895 38.5821C12.6785 39.0931 12.6785 39.9384 13.1895 40.4493L14.9336 42.1935C15.1979 42.4578 15.5324 42.5812 15.8672 42.5812C16.1843 42.5812 16.519 42.4577 16.7656 42.2286L20.5186 38.7579C21.047 38.2646 21.0821 37.4193 20.5889 36.8907ZM46.1191 27.8878C46.6124 27.8879 47 28.2754 47 28.7687V34.0538C47 34.5471 46.6124 34.9346 46.1191 34.9347H41.7139C39.776 34.9345 38.1905 33.3492 38.1904 31.4113C38.1904 29.4733 39.776 27.888 41.7139 27.8878H46.1191ZM24.5361 11.9425C27.1438 9.3525 31.3543 9.3525 33.9619 11.9425L37.292 15.3077L37.3623 15.378C37.8909 15.889 37.4509 16.6817 36.7109 16.6818L22.1221 16.6642C21.2765 16.664 20.8541 15.6421 21.4531 15.0431L24.5361 11.9425Z" fill="url(#paint2_linear_165_432)"/>
</g>
<defs>
<radialGradient id="paint0_radial_165_432" cx="0" cy="0" r="1" gradientUnits="userSpaceOnUse" gradientTransform="translate(29 58) rotate(-90) scale(67 65.7321)">
<stop stop-color="#FF2830" stop-opacity="0.6"/>
<stop offset="1" stop-color="#FF2830" stop-opacity="0"/>
</radialGradient>
<linearGradient id="paint1_linear_165_432" x1="58" y1="58" x2="0" y2="58" gradientUnits="userSpaceOnUse">
<stop stop-color="#FF2830" stop-opacity="0.2"/>
<stop offset="0.495192" stop-color="#FF2830"/>
<stop offset="1" stop-color="#FF2830" stop-opacity="0.2"/>
</linearGradient>
<linearGradient id="paint2_linear_165_432" x1="28.5" y1="10" x2="28.5" y2="46.3868" gradientUnits="userSpaceOnUse">
<stop stop-color="#FF2830"/>
<stop offset="1" stop-color="#FF686E"/>
</linearGradient>
</defs>
</svg>
