<svg width="40" height="24" viewBox="0 0 40 24" fill="none" xmlns="http://www.w3.org/2000/svg">
<g clip-path="url(#clip0_179_529)">
<g style="mix-blend-mode:luminosity" opacity="0.3">
<path d="M25.4496 2.56689H14.9486V21.4329H25.4496V2.56689Z" fill="white"/>
<path d="M15.648 12C15.648 8.16699 17.4499 4.76505 20.215 2.56699C18.18 0.96699 15.613 0 12.813 0C6.17998 0 0.812988 5.36699 0.812988 12C0.812988 18.633 6.17998 24 12.813 24C15.613 24 18.18 23.033 20.215 21.433C17.446 19.266 15.648 15.833 15.648 12Z" fill="#EB001B"/>
<path d="M39.6167 12C39.6167 18.633 34.2497 24 27.6167 24C24.8167 24 22.2497 23.033 20.2147 21.433C23.0147 19.2311 24.7817 15.833 24.7817 12C24.7817 8.16699 22.9798 4.76505 20.2147 2.56699C22.2458 0.96699 24.8128 0 27.6128 0C34.2497 0 39.6167 5.40194 39.6167 12Z" fill="#F79E1B"/>
</g>
</g>
<defs>
<clipPath id="clip0_179_529">
<rect width="40" height="24" fill="white"/>
</clipPath>
</defs>
</svg>
