<svg width="81" height="24" viewBox="0 0 81 24" fill="none" xmlns="http://www.w3.org/2000/svg">
<g style="mix-blend-mode:luminosity" opacity="0.5">
<path d="M6.81665 3.00313H13.4167C14.0167 3.00313 15.8167 2.80312 16.6167 5.60313C17.2167 7.40313 18.0167 10.2031 19.2167 14.4031H19.6167C20.8167 10.0031 21.8167 7.00313 22.2167 5.60313C23.0167 2.80312 25.0167 3.00313 25.8167 3.00313H32.0167V22.2031H25.6167V10.8031H25.2167L21.8167 22.2031H17.0167L13.6167 10.8031H13.0167V22.2031H6.81665M34.6167 3.00313H41.0167V14.4031H41.6166L45.8167 5.00312C46.6166 3.20312 48.4167 3.00313 48.4167 3.00313H54.4167V22.2031H48.0167V10.8031H47.6166L43.4167 20.2031C42.6166 22.0031 40.6166 22.2031 40.6166 22.2031H34.6167M63.0167 16.4031V22.2031H57.0167V12.2031H76.6167C75.8167 14.6031 73.0167 16.4031 69.8167 16.4031" fill="#0F754E"/>
<path d="M77.0167 11C77.8167 7.4 75.4167 3 70.2167 3H56.6167C57.0167 7.2 60.6167 11 64.4167 11" fill="url(#paint0_linear_179_548)"/>
</g>
<defs>
<linearGradient id="paint0_linear_179_548" x1="74.6167" y1="0.4" x2="58.6167" y2="0.4" gradientUnits="userSpaceOnUse">
<stop stop-color="#1F5CD7"/>
<stop offset="1" stop-color="#02AEFF"/>
</linearGradient>
</defs>
</svg>
