<svg width="57" height="28" viewBox="0 0 57 28" fill="none" xmlns="http://www.w3.org/2000/svg">
<mask id="mask0_179_534" style="mask-type:luminance" maskUnits="userSpaceOnUse" x="0" y="0" width="57" height="28">
<path d="M56.6167 0H0.616699V28H56.6167V0Z" fill="white"/>
</mask>
<g mask="url(#mask0_179_534)">
<g style="mix-blend-mode:luminosity" opacity="0.3">
<path d="M42.4126 11.3662C42.3994 11.3662 40.528 11.3701 40.2769 11.3701C39.1916 11.3701 38.2058 12.2173 38.0679 13.3779C38.6449 12.8165 39.411 12.4912 40.3394 12.4912C42.3514 12.4912 43.5552 13.7696 43.5552 15.7383C43.555 17.7721 41.9233 19.1133 39.7261 19.1133C37.4543 19.1132 35.7983 17.6923 35.7983 14.4717C35.7984 11.7072 37.4967 9.43133 40.0112 9.3877C41.1108 9.38769 43.4742 9.33409 43.479 9.33398L42.4126 11.3662ZM32.48 11.5566C33.4171 11.5566 34.2227 11.8072 34.8276 12.2637C34.5002 12.8414 33.871 13.9913 33.8599 14.0117C33.846 14.0045 32.9831 13.5577 32.3296 13.5576C31.2552 13.5576 30.4724 14.179 30.4722 15.2637C30.4722 16.3758 31.3588 17.0019 32.354 16.9727C33.2198 16.9097 33.8003 16.5771 33.8003 16.5771L34.7085 18.251C34.1267 18.6231 33.1719 18.865 32.48 18.8906C30.0045 18.9359 28.2827 17.4354 28.2827 15.25C28.2829 13.0924 30.1148 11.5567 32.48 11.5566ZM52.0405 18.8682H49.5854V14.0664H47.2222V18.8682H44.7671V12.0225H52.0405V18.8682ZM39.7397 14.291C38.899 14.291 38.3335 14.8389 38.3335 15.752C38.3336 16.611 38.8991 17.2383 39.7397 17.2383C40.6186 17.2364 41.1216 16.5588 41.1216 15.7373C41.1214 14.8248 40.5554 14.2911 39.7397 14.291Z" fill="white"/>
<path d="M0.616699 6.09473L4.02169 12.1556V15.8525L0.620682 21.9014L0.616699 6.09473Z" fill="#5B57A2"/>
<path d="M13.6904 9.94956L16.881 8.00216L23.4108 7.99609L13.6904 13.926V9.94956Z" fill="#D90751"/>
<path d="M13.6724 6.05897L13.6904 14.0833L10.2775 11.995V0L13.6724 6.05897Z" fill="#FAB718"/>
<path d="M23.4108 7.99657L16.8808 8.00263L13.6724 6.05897L10.2775 0L23.4108 7.99657Z" fill="#ED6F26"/>
<path d="M13.6904 21.935V18.0418L10.2775 15.9932L10.2793 28L13.6904 21.935Z" fill="#63B22F"/>
<path d="M16.8731 20.0054L4.02145 12.1556L0.616699 6.09473L23.397 19.9974L16.8731 20.0054Z" fill="#1487C9"/>
<path d="M10.2797 28.0006L13.6903 21.9356L16.8729 20.0059L23.3968 19.998L10.2797 28.0006Z" fill="#017F36"/>
<path d="M0.620728 21.9013L10.3054 15.9933L7.04948 14.0039L4.02173 15.8524L0.620728 21.9013Z" fill="#984995"/>
</g>
</g>
</svg>
