<svg width="68" height="22" viewBox="0 0 68 22" fill="none" xmlns="http://www.w3.org/2000/svg">
<g clip-path="url(#clip0_179_525)">
<g style="mix-blend-mode:luminosity" opacity="0.3">
<path d="M29.3976 21.6333H23.8642L27.3225 0.379771H32.8564L29.3976 21.6333ZM19.2091 0.379771L13.9338 14.9981L13.3096 11.8502L13.3102 11.8514L11.4483 2.29341C11.4483 2.29341 11.2231 0.379771 8.82342 0.379771H0.102334L0 0.739643C0 0.739643 2.66692 1.29452 5.7881 3.16893L10.5955 21.6339H16.3609L25.1644 0.379771H19.2091ZM62.7321 21.6333H67.813L63.3831 0.379202H58.935C56.8809 0.379202 56.3806 1.9631 56.3806 1.9631L48.128 21.6333H53.8962L55.0497 18.4763H62.084L62.7321 21.6333ZM56.6433 14.1152L59.5507 6.16161L61.1863 14.1152H56.6433ZM48.5607 5.49076L49.3503 0.926685C49.3503 0.926685 46.9137 0 44.3735 0C41.6276 0 35.1066 1.20014 35.1066 7.036C35.1066 12.5268 42.7601 12.595 42.7601 15.4791C42.7601 18.3632 35.8952 17.8464 33.6296 16.0277L32.807 20.7999C32.807 20.7999 35.2778 22 39.0527 22C42.8288 22 48.5254 20.0449 48.5254 14.7235C48.5254 9.19751 40.8032 8.683 40.8032 6.28044C40.8038 3.8773 46.1928 4.18601 48.5607 5.49076Z" fill="#4F96E8"/>
<path d="M13.3102 11.851L11.4483 2.29303C11.4483 2.29303 11.2231 0.379395 8.82342 0.379395H0.102334L0 0.739267C0 0.739267 4.19169 1.60796 8.21226 4.86274C12.0566 7.97368 13.3102 11.851 13.3102 11.851Z" fill="#E6A540"/>
</g>
</g>
<defs>
<clipPath id="clip0_179_525">
<rect width="68" height="22" fill="white"/>
</clipPath>
</defs>
</svg>
